<svg xmlns="http://www.w3.org/2000/svg" viewBox="0 0 600 600">
  <circle cx="300" cy="300" r="244" fill="#f9f9f9"/>
  <path fill="#021b44" d="m499.8 258 4.6 2.9 11.2 6.7 13.6 8.1 11.7 7 3.8 2.3 1.9 1.1v.1c.4.2.7-.3.4-.5l-4.7-2.8-11.2-6.7-13.5-8.2-11.8-7-3.8-2.3-1.9-1.1c-.4-.3-.7.3-.3.5Z"/>
  <path fill="#021b44" d="M499.9 258.1c.4 0 .4-.6 0-.6s-.4.6 0 .6ZM213.2 86.2l6.7 4 18.2 11 27 16 32.8 19.8 35.9 21.5 36.1 21.7 33.9 20.3 28.6 17.2L453 230l9.7 5.8.4.3c.3.2.6-.4.3-.6a5919.7 5919.7 0 0 1-6.7-4l-18.2-10.9-27-16.1-32.8-19.7-35.9-21.5-36.2-21.8-33.8-20.3-28.6-17.1-20.6-12.3-9.7-5.9-.4-.2c-.3-.2-.6.3-.3.5Zm72.2-32.7 6.4 3.8 17.4 10.4 25.7 15.4a86666.6 86666.6 0 0 1 65.6 39.4l34.6 20.7 32.3 19.4 27.3 16.4 19.6 11.8 9.3 5.5.4.3c.3.2.6-.4.3-.6l-6.4-3.8-17.4-10.4-25.7-15.4a129994.8 129994.8 0 0 1-65.6-39.4l-34.6-20.7-32.3-19.4L315 70.5l-19.7-11.8-9.2-5.5-.4-.2c-.3-.2-.6.3-.3.5Zm218 122.8 5 3 8.2 5 1.9 1c.3.2.6-.3.3-.5l-5.1-3-8.2-5-1.9-1c-.3-.3-.6.3-.3.5Zm-54-32.3 3.9 2.3 9.3 5.6 11.4 6.8 9.7 5.9 3.3 2 1.5.8c.4.3.7-.2.4-.4l-4-2.4-9.3-5.6-11.3-6.8-9.8-5.8-3.2-2-1.5-.9a.6.6 0 0 1-.1 0c-.3-.2-.6.3-.3.5Zm-47.1-28.3 4 2.4 9.4 5.7 11.4 6.8 9.9 6 3.3 1.9 1.5 1c.4.2.7-.4.4-.6l-4-2.3-9.4-5.7-11.5-6.8-9.8-6-3.3-2-1.5-.8h-.1c-.3-.3-.6.2-.3.4Z"/>
  <path fill="#021b44" d="M402.6 115.8c.3 0 .3-.6 0-.6-.4 0-.4.6 0 .6ZM298.5 53.4 301 55l7 4.2 10.6 6.3 12.8 7.7 14 8.4 14.2 8.5 13.2 8 11.2 6.6 8 4.9 3.8 2.2.2.1c.3.2.6-.3.3-.5l-2.7-1.6-7-4.2-10.6-6.3-12.8-7.7-14-8.4-14.2-8.5-13.2-8-11.1-6.6-8-4.9-3.9-2.2a3.9 3.9 0 0 1-.1-.1c-.4-.2-.7.3-.3.5Zm201.2 213.3 4.7 2.9 11.2 6.8 13.6 8.3 11.7 7 3.9 2.5c.6.3 1.2.8 1.8 1v.1c.4.2.7-.3.4-.5l-4.7-2.8-11.3-7-13.5-8.3-11.7-7-4-2.5-1.7-1-.1-.1c-.3-.2-.6.3-.3.5ZM213.2 92.1l6.7 4 18 11 26.8 16.4 32.5 19.8 35.9 21.8L369 187l33.7 20.5 28.3 17.2 20.5 12.5 9.7 5.9.4.3c.3.1.6-.4.3-.6l-6.7-4-18-11-26.8-16.3-32.5-19.8-35.9-21.8a114373.5 114373.5 0 0 1-69.6-42.4L244 110.2l-20.5-12.5-9.7-5.8-.4-.3c-.3-.2-.6.3-.3.5Zm257.7 165.6a2911.1 2911.1 0 0 0-6.9-4.2l-18.7-11.2-27.7-16.7-33.8-20.3-37-22.3a132034.7 132034.7 0 0 0-72.2-43.5l-29.5-17.7L224 109l-10-6-.5-.3c-.3-.2-.6.4-.3.6l6.9 4.1a115914.4 115914.4 0 0 0 46.4 28l33.8 20.3 37 22.2 37.3 22.5 34.9 21 29.5 17.8 21.2 12.7 10 6 .4.3c.3.2.6-.3.3-.5Zm76.5 46-4.8-2.9-11.3-6.8-13.7-8.2-11.8-7.1-3.9-2.4-1.8-1a3.3 3.3 0 0 1-.1-.1c-.3-.2-.6.3-.3.5l4.7 2.8a19987.4 19987.4 0 0 1 25 15l11.8 7.2 4 2.3 1.8 1.2c.4.2.7-.3.4-.5Zm-319.1-58.6a8229 8229 0 0 1-12.9-7.8l-1.8-1c-.3-.3-.6.2-.3.4l5 3 7.9 4.8 1.8 1.1c.3.2.6-.3.3-.5ZM369 329.8l-3-1.8-8.2-5-12.1-7.3-14.8-8.8-16.1-9.8-16.3-9.8-15.3-9.1-12.8-7.8-9.3-5.6-4.4-2.6h-.1c-.4-.3-.7.2-.4.4l3 1.8 8.2 5a19366 19366 0 0 1 12.1 7.2l14.8 9 16.1 9.6 16.3 9.8 15.3 9.2 12.9 7.8 9.2 5.5c1.4 1 2.9 1.8 4.4 2.7h.2c.3.3.6-.2.3-.4Zm147.9 89-12-7.3-1.8-1c-.3-.2-.6.3-.3.5l12 7.3 1.8 1c.3.2.6-.3.3-.5ZM149.7 206.4c.3 0 .3-.6 0-.6-.4 0-.4.6 0 .6Zm78.6 46.7-5-3-8-4.8-1.8-1.1c-.3-.2-.6.3-.3.5l5 3 8 4.8 1.8 1.1c.3.2.6-.3.3-.5Zm140.6 84.6-3-1.8-8.6-5.1-12.5-7.6-15.3-9.2-16.7-10-16.9-10.2-15.7-9.5-13.4-8-9.5-5.8-4.6-2.7a3.1 3.1 0 0 0-.2-.1c-.3-.2-.6.3-.3.5l3.2 1.9 8.4 5 12.5 7.6 15.3 9.2 16.7 10 17 10.2 29 17.5 9.6 5.8 4.5 2.7.2.1c.3.3.6-.3.3-.5Zm145.2 87.4-9.6-5.8-1.4-.8c-.3-.2-.6.3-.3.5l9.6 5.8 1.4.8c.3.2.6-.3.3-.5ZM141 236.5c.3 0 .3-.6 0-.6-.4 0-.4.6 0 .6Zm294 176.3-8.7-5.2-1.2-.7c-.3-.2-.6.3-.3.5l8.6 5.2 1.3.7c.3.2.6-.3.3-.5Zm20.2 12.2-8.6-5.2-1.3-.8c-.3-.2-.6.4-.3.6l8.7 5.2 1.2.7c.4.2.7-.3.3-.5ZM110.1 276.4c.4 0 .4-.6 0-.6s-.4.6 0 .6Zm291.7 175-8.6-5.2-1.3-.8c-.3-.2-.6.4-.3.6l8.7 5.1 1.2.8c.4.2.6-.3.3-.5ZM102.6 255c.3 0 .3-.6 0-.6-.4 0-.4.6 0 .6ZM229 330.6l-5.3-3.2-8.4-5-2-1.2c-.3-.3-.6.3-.3.5l5.3 3.1 8.4 5.1 2 1.2c.3.2.6-.3.3-.5Z"/>
  <path fill="#021b44" d="m233.2 333-3.6-2.1-.5-.3c-.3-.2-.6.3-.3.5l3.6 2.2.5.3c.4.2.7-.3.3-.5Zm50 30.2-4.1-2.5-10-6-12-7.2-13.7-8.3-1.6-1h-.1c-.3-.2-.6.3-.3.5l4.1 2.5 10 6 12 7.2 13.8 8.3 1.6 1c.4.2.7-.3.3-.5Zm189.6 114-4.7-2.8-11.4-6.8-13.8-8.3-12-7.2-3.9-2.4-1.8-1.1h-.1c-.3-.2-.6.3-.3.5l4.7 2.8 11.4 6.9 13.8 8.3 12 7.2 3.9 2.3 1.8 1.1.1.1c.3.2.6-.3.3-.5Zm-267.7-76-2-1-5-3.2-17-10-10-6.2-10.3-6.2-9.5-5.7-8-4.8-5.9-3.5-2.7-1.7h-.1c-.4-.3-.7.3-.3.5l1.9 1 5 3.2 7.7 4.5 9.2 5.6 10.1 6.1 10.3 6.2 9.6 5.7 8 4.9 5.8 3.5 2.7 1.6.2.1c.3.2.6-.3.3-.5Zm202.4 122-1.6-1-4.4-2.7-6.5-3.9-8-4.8-8.7-5.2-8.8-5.3-8.2-5-7-4.1-5-3-2.3-1.5h-.1c-.3-.2-.6.3-.3.5l1.6 1 4.4 2.6 6.5 4 8 4.7 8.7 5.3 8.8 5.3 8.3 5 6.9 4 5 3 2.3 1.5h.1c.4.3.7-.2.3-.4Zm-270-89-1.7-1.1-5-3-7.2-4.4-8.9-5.3-9.7-5.8-9.8-6-9.1-5.4-7.7-4.7-5.6-3.3-2.6-1.6H70c-.3-.3-.6.2-.3.4l1.9 1.1 12.1 7.4 8.9 5.3 9.7 5.8 9.8 6 9.1 5.4 7.8 4.7 5.5 3.3 2.7 1.6c.4.3.7-.2.4-.4Zm186.9 112.4-4.5-2.7-10.8-6.5-13-7.8L285 523l-3.6-2.2-1.8-1.1c-.4-.3-.7.3-.4.5l4.5 2.7 10.8 6.4 12.9 7.8 11.2 6.8 3.7 2.2c.6.4 1.2.8 1.8 1v.1c.4.2.7-.3.4-.5Zm71.5-435v8c0 .4.6.4.6 0v-8c0-.3-.6-.3-.6 0Z"/>
  <path fill="#021b44" d="M396 72.4v39.2c0 .4.5.4.5 0v-39c0-.5-.6-.5-.6 0Zm-61.4-17v19.5c0 .4.6.4.6 0V55.3c0-.3-.6-.3-.6 0Zm107.2 83.8v8c0 .5.6.5.6 0v-8c0-.4-.6-.4-.6 0Z"/>
  <path fill="#021b44" d="M441.8 98v41.2c0 .4.6.4.6 0V98c0-.4-.6-.4-.6 0Zm-39.6-22.8v40.3c0 .3.7.3.7 0V75.2c0-.4-.6-.4-.6 0Zm47.2 28.3v39.9c0 .4.6.4.6 0v-39.9c0-.4-.6-.4-.6 0ZM496 150v29.2c0 .4.5.4.5 0V150c0-.4-.5-.4-.5 0Zm-7.6-8.8V167c0 .4.6.4.6 0v-25.8c0-.3-.6-.3-.6 0Zm14.7 18.6v15.9c0 .3.6.3.6 0v-16c0-.3-.6-.3-.6 0Zm33 67.2-3.7 1.7-8.7 4-10.5 4.8-9.1 4.1-3 1.4-1.4.7h-.1c-.4.2 0 .7.3.5l3.6-1.7 8.7-4 10.5-4.7 9.1-4.2 3-1.4 1.4-.6h.1c.4-.2 0-.7-.3-.6Zm-9.9 46.4-7.3 3.3-1 .5-.1.3v9c0 .4.5.4.5 0v-9l-.1.2 7.2-3.3 1.1-.5c.3-.1 0-.6-.3-.5Zm13.8 8.3-7.2 3.3-1 .5a.3.3 0 0 0-.2.3v9c0 .4.6.4.6 0v-9l-.1.3 7.2-3.4 1-.5c.4-.1.1-.6-.2-.5Zm-48.8-105.4-2.1 1-5.7 2.7-8.4 4a13584 13584 0 0 0-10 5l-11.2 5.3-11.3 5.4-10.6 5-8.9 4.3-6.4 3-3 1.5h-.2a.3.3 0 0 0-.1.3v9.8c0 .4.6.4.6 0v-9.8l-.2.3 2-1 5.8-2.7 8.4-4 10.2-4.9 11.2-5.3 11.3-5.4 10.6-5 8.9-4.3 6.4-3 3-1.5.2-.1c.3-.2 0-.7-.3-.5Zm-79.6-47.7-2 1-5.7 2.7-8.3 4-10 4.8a55764.4 55764.4 0 0 1-22.3 10.6L337.7 164l-3 1.4a2.6 2.6 0 0 1-.2 0l-.1.3V176c0 .4.6.4.6 0v-10.2l-.1.3 2-1 5.6-2.7 8.3-4 10.1-4.8 11-5.3 11.3-5.3 10.4-5 8.8-4.3 6.4-3 3-1.4h.1c.3-.3 0-.8-.3-.6ZM334 82.1l-1.9.9-5.1 2.5-7.5 3.6-9.3 4.4-10.1 4.8-10.2 5-9.5 4.5-8 3.8-5.8 2.8-2.8 1.3c-.4.2-.1.7.2.6l1.9-1 12.7-6 9.2-4.4 20.3-9.8 9.5-4.5 8-3.8 5.8-2.8 2.8-1.3h.1c.3-.3 0-.8-.3-.6Zm99.7 135.8-7 3.2-1 .4-.1.3v9c0 .4.5.4.5 0v-9l-.1.3 7-3.2 1-.5c.3-.1 0-.6-.4-.5Zm-25.4-15.2-7.5 3.4-.1.3v9c0 .4.6.4.6 0v-9l-.2.2 7.5-3.4c.3-.1 0-.6-.3-.5Zm-12.4-7.4-7.3 3.3a.3.3 0 0 0-.2.3v9c0 .4.6.4.6 0v-9l-.1.2 7.3-3.3c.3-.2 0-.7-.3-.6Zm-13.7-8.2-7 3.2c-.2 0-.2.2-.2.3v9c0 .4.6.4.6 0v-9l-.2.2 7.1-3.2c.3-.2 0-.7-.3-.5Zm-12.4-7.5-7 3.2-.1.2v10c0 .3.6.3.6 0v-10l-.2.3 7-3.2c.3-.2 0-.7-.3-.5Zm-76-45.5-6.2 2.8-.1.3v10.6c0 .4.6.4.6 0v-10.6l-.2.2 6.2-2.8c.4-.2 0-.7-.3-.5Zm-61-36.6-5.7 2.6a.3.3 0 0 0-.2.3v11c0 .3.6.3.6 0v-11l-.1.2L233 98c.4-.2 0-.7-.3-.5Zm215 128.8-7.1 3.3-1 .4a.3.3 0 0 0-.2.3v9c0 .4.6.4.6 0v-9l-.2.3 7.1-3.3 1-.4c.3-.2 0-.7-.3-.6Zm12.6 7.8-7 3.3-1 .4c-.2 0-.2.2-.2.3v8.7c0 .4.6.4.6 0v-8.7l-.2.2 7-3.2 1.1-.4c.4-.2 0-.7-.3-.6Zm5.6 18.1v3c0 .3.6.3.6 0v-3c0-.3-.6-.3-.6 0ZM134.2 358.8l-1.7.9-4.8 2.3-7 3.4-8.7 4.1-9.5 4.5-9.5 4.6-8.9 4.2-7.5 3.6-5.4 2.6-2.6 1.3h-.1c-.4.2 0 .7.3.5l1.7-.8 4.8-2.3 15.8-7.5 9.4-4.5 9.6-4.6 8.8-4.3 7.6-3.6 5.4-2.6c.8-.4 1.7-.7 2.5-1.2h.2c.3-.2 0-.7-.3-.6Z"/>
  <path fill="#021b44" d="m213.2 321-2.1 1-14.3 6.9-10.3 5-22.8 10.9-10.7 5-9 4.4-6.5 3.1-3.1 1.5h-.1c-.4.2 0 .7.3.6l2-1 5.8-2.8 8.5-4 10.4-5 22.8-11 10.7-5 9-4.4 6.5-3 3-1.6h.2c.3-.2 0-.7-.3-.5Z"/>
  <path fill="#021b44" d="M213 244.4v76.9c0 .4.7.4.7 0v-76.9c0-.4-.6-.4-.6 0Zm-77.3 189.3c.4 0 .4-.6 0-.6s-.4.6 0 .6Zm1.6.5-3.5 1.7-8.3 4-10 4.9-8.7 4.2-2.9 1.4c-.4.2-1 .4-1.3.7-.4.2-.1.7.2.5l3.5-1.7 8.3-4 10-4.9 8.7-4.2 2.9-1.4 1.3-.7c.4-.2.1-.7-.2-.5Z"/>
  <path fill="#021b44" d="m204.8 401.3-1.8.9-5 2.4-7.2 3.5a9055.3 9055.3 0 0 1-18.6 9l-9.8 4.8-9.1 4.5-7.7 3.7-5.6 2.7-2.6 1.3h-.1c-.4.2 0 .7.3.6l1.8-.9 4.9-2.4 7.3-3.5 8.8-4.4 9.7-4.7 9.8-4.7 9.2-4.5 7.7-3.8 5.5-2.7 2.6-1.2.1-.1c.4-.2.1-.7-.3-.5Z"/>
  <path fill="#021b44" d="m361 325.1-4.1 2-11.4 5.6-16.8 8.2-20.6 10-22.5 11-22.7 11-21.1 10.3L224 392l-12.9 6.3-6 3h-.3c-.4.3 0 .8.3.6l4.1-2 11.4-5.6 16.8-8.2 20.6-10 22.5-11 22.7-11 21.1-10.3 17.9-8.7 12.8-6.3 6.1-3h.3c.3-.2 0-.8-.3-.6Zm-81.9 194.4-4.2 2-10 5-12 5.9-10.6 5-3.4 1.7-1.6.8h-.1c-.4.2 0 .8.3.6l4.2-2 10-5 12-5.8 10.6-5.1 3.4-1.7 1.6-.8h.1c.4-.2 0-.7-.3-.6Z"/>
  <path fill="#021b44" d="m481.5 420.9-5.4 2.6-14.7 7.2-21.8 10.6-26.6 13-29.1 14.2-29.4 14.3-27.4 13.4-23.1 11.2-16.7 8.1-7.8 3.9-.4.1c-.3.2 0 .7.3.6l5.4-2.7 14.8-7.2 21.8-10.6 26.6-13 29-14.1 29.5-14.4 27.4-13.3 23-11.3 16.7-8 7.9-4h.3c.4-.3 0-.8-.3-.6Zm14-6.8-2.2 1-.3.2c-.1 0-.2.3 0 .4 0 .2.2.2.3.1l2.2-1 .3-.2c.1 0 .2-.3 0-.4 0-.1-.2-.2-.3 0Z"/>
  <path fill="#021b44" d="m502.8 410.6-6.4 3-1 .5c-.3.2 0 .7.4.5l6.3-3 1-.5c.3-.2 0-.7-.3-.5ZM248.7 543l6.2-3 17-8.3 25-12.2 30.7-15 33.6-16.3 33.8-16.5 31.6-15.4 26.6-13 19.2-9.3 9-4.4.4-.2c.4-.2 0-.7-.3-.5l-6.2 3-17 8.3-25 12.2-30.7 15-33.6 16.3-33.8 16.5-31.6 15.4-26.6 13-19.2 9.3-9 4.4-.4.2c-.4.2 0 .7.3.5Zm-96.4-100-4 2-9.5 4.7-11.6 5.6-10 4.9-3.3 1.6-1.5.7c-.4.2-.1.7.2.6l4-2 9.5-4.6 11.6-5.7 10-4.8 3.2-1.6 1.6-.8c.4-.2.1-.7-.2-.5Z"/>
  <path fill="#021b44" d="m219 410.6-1.7.9-4.9 2.4-7.2 3.5-8.7 4.2-9.6 4.7-9.7 4.7-9 4.5-7.7 3.7-5.5 2.7-2.6 1.2h-.1c-.4.2 0 .8.3.6l1.8-.9 4.8-2.3 7.2-3.5 8.8-4.3 9.6-4.7 9.7-4.7 9-4.4 7.7-3.7 5.5-2.7 2.6-1.3c.4-.2.1-.7-.2-.6Z"/>
  <path fill="#021b44" d="m368.6 337.8-4 2-10.9 5.2-16.1 7.9-19.6 9.6-21.5 10.4-21.8 10.6-20.2 9.9-17 8.3-12.4 6-5.8 2.8-.2.1c-.4.2 0 .7.3.5l4-2 10.9-5.2 16-7.9 19.7-9.5 21.5-10.5 21.7-10.6 20.3-9.9a53625 53625 0 0 0 29.3-14.3c2-.9 4-1.8 5.8-2.8l.3-.1c.3-.2 0-.7-.3-.5Z"/>
  <path fill="#021b44" d="M368.4 330.1v8c0 .3.6.3.6 0v-8c0-.4-.6-.4-.6 0Z"/>
  <path fill="#021b44" d="m108.5 458.3 7-3.4 19-9.3 28-13.8 34.1-16.8 37.4-18.4 38-18.6 35.3-17.3 29.7-14.6 21.4-10.5 10.1-5 .5-.2c.3-.2 0-.7-.3-.5l-7 3.4-19 9.3-28 13.8-34.1 16.8-37.4 18.3-37.9 18.6-35.3 17.4-29.7 14.6-21.4 10.5-10.2 5-.4.2c-.3.2 0 .7.3.5Zm365.2-33 6.2 4 .9.6c.3.2.6-.3.3-.6l-6.2-4-.9-.6c-.3-.2-.6.3-.3.5Zm-15 7.4 6 4 .9.5c.3.2.6-.3.3-.5l-6-4-1-.5c-.2-.2-.5.3-.2.5Zm-17.8 8.7 5.6 4 .8.5c.4.2.7-.3.4-.5l-5.7-4-.8-.5c-.3-.2-.6.3-.3.5Zm-53 25.8 6 3.8.8.6c.3.2.6-.3.3-.5l-6-4-.8-.5c-.4-.2-.7.3-.3.5Zm-58.2 28.4 6 4 .8.5c.4.2.6-.3.3-.5l-6-4-.8-.5c-.3-.2-.6.3-.3.5Zm-16.7 8 6 3.8.9.6c.3.2.6-.3.3-.5l-6-4-.9-.5c-.3-.2-.6.3-.3.5Zm-16.2 7.8 6 4 .9.5c.3.2.6-.3.3-.5l-6-4-.9-.5c-.3-.2-.6.3-.3.6ZM261.2 529l6 3.9.8.5c.4.2.7-.3.4-.5l-6-3.9-1-.6c-.2-.2-.5.4-.2.6Zm-17.4 8.7 6 3.9.8.5c.4.2.7-.3.3-.5l-6-3.9-.8-.6c-.3-.2-.6.4-.3.6ZM345.5 359l-5.3 2.7-12.8 6.3a4419.4 4419.4 0 0 0-15.4 7.6l-13.3 6.6-4.4 2.1-2.1 1-.1.1c-.3.2 0 .7.3.5l5.3-2.6 12.8-6.3 15.4-7.6 13.3-6.6 4.4-2.2 2.1-1h.1c.3-.2 0-.7-.3-.6Zm99.5 60-5.3 2.6L427 428l-15.5 7.6-13.3 6.6-4.4 2.2-2 1h-.2c-.3.2 0 .7.3.6l5.4-2.7L410 437l15.4-7.6 13.4-6.6 4.4-2.2 2-1h.1c.4-.2 0-.7-.3-.6Zm10 5.9-5.4 2.6-12.7 6.3-15.5 7.6-13.3 6.6-4.4 2.2-2 1h-.2c-.3.3 0 .8.3.6l5.4-2.6 12.7-6.3 15.4-7.7 13.4-6.5 4.3-2.2 2.1-1 .1-.1c.4-.2 0-.7-.3-.5Z"/>
  <path fill="#0aaaaa" d="M449.6 103.5s33.7 27.7 39.2 37.8v25.8l-39.2-23.4v-40.2Zm-47-28.3v40.3l39.5 23.7V98S415 80.2 402.5 75.2Z"/>
  <path fill="#021b44" d="m391.8 445.7 53.4-26.4 9.9 6-53.4 26.3-10-6Z"/>
  <path fill="#021b44" d="m392 446.2 5.4-2.6 12.7-6.3 15.5-7.7 13.3-6.6 4.4-2.1 2-1h.2-.6l8.6 5.1 1.3.8v-1l-5.4 2.6-12.7 6.3-15.4 7.6-13.4 6.6-4.3 2.2c-.7.3-1.5.6-2.1 1h-.1.6l-8.7-5.2-1.2-.7c-.7-.4-1.3.6-.6 1l6.5 3.9 3.1 1.9c.3.2.5.3.9.1h.2l9.3-4.7 8.2-4 9.3-4.6 9.1-4.5 8.1-4 6.1-3 3-1.5c.5-.2.4-.8 0-1l-6.4-4-3.2-1.9c-.2-.1-.5-.3-.8-.1h-.2l-3.2 1.6-6.2 3.1-8.2 4-9.2 4.6-9.2 4.6-8 4-6.2 3-2.9 1.4h-.1c-.7.4-.1 1.4.6 1.1Zm-20.4-12.4 53.4-26.4 9.9 6-53.4 26.4-10-6Z"/>
  <path fill="#021b44" d="m371.9 434.3 5.3-2.6 12.8-6.3 15.4-7.6 13.3-6.6 4.4-2.2 2.1-1h.1-.6l8.7 5.2 1.2.7v-1l-5.4 2.6-12.7 6.3-15.4 7.6-13.4 6.6-4.3 2.2c-.7.3-1.5.6-2.1 1h-.1.6l-8.7-5.1-1.2-.8c-.7-.4-1.3.6-.6 1l6.5 4 3.1 1.8c.3.2.5.3.9.2l.2-.1 3.1-1.6 6.2-3 8.2-4.1 9.3-4.6 9.2-4.5 8-4 6.1-3 3-1.4v-.1c.5-.2.4-.8 0-1l-6.4-4-3.1-1.8c-.3-.2-.6-.3-.9-.2l-.2.1-9.4 4.7-8.2 4-9.2 4.6-9.2 4.5-8 4-6.1 3-3 1.5a2.6 2.6 0 0 1-.1 0c-.7.4 0 1.4.6 1Zm-18.5-11.6 53.4-26.3 9.9 5.9-53.4 26.4-10-6Z"/>
  <path fill="#021b44" d="m353.7 423.3 5.3-2.7 12.8-6.3 15.4-7.6 13.3-6.6 4.4-2.2 2.1-1h.1-.6l8.7 5.2 1.2.7v-1l-5.4 2.6-12.7 6.3-15.4 7.6-13.4 6.6-4.3 2.2c-.7.3-1.5.6-2.1 1h-.1.6l-8.7-5.1-1.2-.8c-.7-.4-1.3.7-.6 1l6.5 4 3.1 1.9c.3.1.5.3.9.1h.2l3.1-1.7 6.2-3 8.2-4 9.3-4.6 9.1-4.6 8.2-4 6-3 3-1.4c.5-.3.4-.9 0-1.1l-6.4-4-3.1-1.8c-.3-.2-.5-.3-1-.1h-.1l-9.4 4.7-8.2 4-9.2 4.6-9.2 4.5-8 4-6.1 3-3 1.5h-.1c-.7.4 0 1.4.6 1Zm-20.5-12.4 53.4-26.4 9.9 6-53.4 26.3-9.9-6Z"/>
  <path fill="#021b44" d="m333.5 411.4 5.3-2.6 12.8-6.3 15.4-7.7 13.3-6.6 4.4-2.1 2.1-1 .1-.1h-.6l8.7 5.2 1.2.7v-1l-5.3 2.7-12.8 6.3-15.4 7.6-13.3 6.6-4.4 2.1-2.1 1-.1.1h.6l-8.7-5.2-1.2-.7c-.6-.4-1.2.6-.6 1l6.5 3.9 3.1 1.9c.3.2.5.3.9.1h.2l3.1-1.6 6.3-3 8.2-4.1 9.2-4.6 9.2-4.5 8-4 6.1-3 3-1.5h.1c.4-.3.4-.9 0-1l-6.5-4-3.1-1.9c-.3-.1-.5-.3-.9-.1h-.2l-9.3 4.7-8.3 4-9.2 4.6-9.2 4.5-8 4-6.1 3-3 1.5a.6.6 0 0 0 .5 1Zm-19.7-13.2 53.4-26.4 10 6-53.5 26.4-9.9-6Z"/>
  <path fill="#021b44" d="m314.1 398.7 5.3-2.6 12.8-6.3 15.4-7.6 13.3-6.6 4.4-2.2c.7-.3 1.5-.6 2.1-1h.1-.6l8.7 5.2 1.2.7v-1l-5.3 2.6-12.8 6.3-15.4 7.6-13.3 6.6-4.4 2.2c-.7.3-1.5.6-2.1 1h-.1.6l-8.7-5.2-1.2-.7c-.7-.4-1.2.6-.6 1l6.5 4 3.1 1.8c.3.2.5.3 1 .2l.1-.1 3.1-1.6 6.3-3 8.2-4.1 18.4-9.1 8-4 6.1-3 3-1.4.1-.1c.4-.2.4-.8 0-1l-6.5-4-3.1-1.8c-.3-.2-.5-.3-.9-.2l-.2.1-36 17.8-8 4-6.1 3-3 1.4v.1c-.8.3-.2 1.4.5 1Zm-22-13.1 53.3-26.4 10 6-53.5 26.3-9.9-6Z"/>
  <path fill="#021b44" d="m292.3 386 5.4-2.6 12.7-6.3 15.4-7.6 13.4-6.6 4.4-2.1 2-1 .1-.1h-.6l8.7 5.2 1.2.7v-1l-5.3 2.6-12.7 6.3-15.5 7.7-13.3 6.6-4.4 2.1-2 1-.2.1h.6l-8.6-5.2-1.3-.7c-.6-.5-1.2.6-.6 1l6.5 3.9 3.2 1.9c.3.1.5.3.8.1h.2l3.2-1.6 6.2-3.1 8.2-4 18.4-9.2 8.1-4 6-3 3-1.4h.1c.4-.3.4-.9 0-1l-6.5-4-3.1-1.9c-.3-.2-.5-.3-.9-.1h-.2l-36 17.8-8 4-6 3-3 1.5h-.2c-.6.4 0 1.4.6 1Zm-26-228.3 11.4-6 48.7 30.9-11.5 5.6-48.7-30.5Z"/>
  <path fill="#021b44" d="m266.5 158.2 10-5.2 1.5-.8h-.6l4.9 3.1 11.6 7.3 14 9 12.2 7.7 4 2.5c.6.4 1.2 1 2 1.2v-1l-10.1 5-1.4.7h.6l-4.9-3-11.6-7.3-14-8.9-12.2-7.6-5.9-3.7c-.7-.4-1.3.6-.7 1l2 1.2 5 3.2 7.4 4.6 17.1 10.7 7.8 5 6 3.7 3.1 2c.4.1.6.2 1 0l2.9-1.4 8-3.8.5-.3c.4-.2.3-.8 0-1l-2-1.3-5-3.2-7.4-4.7-8.5-5.4-8.7-5.4-7.8-5-9-5.7a.9.9 0 0 0-1-.1l-3 1.5-7.8 4.1-.6.3c-.6.3 0 1.4.6 1ZM241.7 170l11.5-6 48.7 30.8-11.6 5.6-48.6-30.5Z"/>
  <path fill="#021b44" d="m242 170.5 10-5.3 1.5-.7h-.6l4.8 3 11.6 7.4 14.1 9 16.2 10.2c.6.4 1.2.9 1.9 1.2v-1l-10 5-1.5.6h.6l-4.8-3-11.6-7.3-14-8.8-12.2-7.6c-2-1.2-4-2.6-6-3.7-.7-.5-1.2.6-.6 1l2 1.2 5 3.2 7.4 4.6 8.5 5.3 8.6 5.4 7.8 4.9 6 3.7 3 2c.4.2.7.3 1 0l3-1.3 8-3.9.5-.2c.4-.2.3-.8 0-1l-2-1.3-5.1-3.3-7.4-4.6-8.5-5.4-8.6-5.5-7.8-5-9.1-5.7c-.3-.2-.6-.2-1 0-1 .4-2 1-2.9 1.5l-7.9 4-.5.3c-.7.4 0 1.4.6 1ZM217.2 181l11.4-6 48.7 31-11.5 5.5-48.6-30.5Z"/>
  <path fill="#021b44" d="m217.4 181.5 10-5.2 1.5-.7h-.6l4.9 3 11.6 7.4 14 9 16.2 10.2c.7.4 1.3.9 2 1.2v-1l-10 4.9-1.5.7h.6l-4.8-3-11.6-7.3-14.1-8.8-12.2-7.6c-2-1.3-3.9-2.6-5.9-3.7-.7-.5-1.3.5-.6 1l1.9 1.1 12.4 7.9 8.5 5.3 8.6 5.4 17 10.6c.3.2.6.2 1 0l2.8-1.3 8-4 .5-.2c.4-.2.4-.8 0-1l-2-1.2-5-3.3-7.4-4.6-8.5-5.4-8.6-5.5-7.9-5-9-5.7a.9.9 0 0 0-1 0l-2.9 1.4-7.9 4.1-.5.3c-.7.4-.1 1.4.6 1Zm-3.9 12 14.6 9v14l-14.8-9.4v-13.7l.2.1Z"/>
  <path fill="#021b44" d="m213.4 193.8 5 3 7.8 4.8 1.8 1.2-.1-.3v14l.4-.3-5-3.1-8-5.1-1.8-1.2.1.3v-13.7l-.4.3h.2c.3.3.6-.2.3-.4l-.2-.1c-.2-.1-.4 0-.4.2v13.8c0 .2.2.2.4.3l9.4 6 5.1 3.2c.2.2.4 0 .4-.2V203c0-.4.1-.7-.3-1l-2-1.2-7.3-4.5-5.1-3.1c-.3-.2-.6.3-.3.5Z"/>
  <path fill="#81cff5" d="m244 537 17.3-8.4 6.9 4.5-17.4 8.7-7-4.7h.1Z"/>
  <path fill="#81cff5" d="m244.2 537.5 5.9-2.8 9.4-4.5 2.1-1h-.6l6.9 4.4v-1l-5.9 2.9-9.4 4.7-2.1 1h.6l-7-4.6v1h.1c.7-.4.1-1.4-.6-1-.5.2-.4.8 0 1a7651 7651 0 0 1 6.9 4.7h.6l5.9-3 9.3-4.6 2.2-1.1c.4-.2.3-.8 0-1l-5-3.3c-.6-.4-1.2-.9-1.9-1.2-.4-.2-.9.2-1.3.3l-12.6 6.1-4 2a.6.6 0 0 0 .5 1Zm35.8-17.9 17.4-8.4 6.8 4.5-17.4 8.6-7-4.6h.2Z"/>
  <path fill="#81cff5" d="m280.2 520.1 6-2.8 9.3-4.5 2.2-1h-.6l6.8 4.4v-1L298 518l-9.4 4.7-2.1 1h.6l-7-4.6v1h.1c.7-.4.1-1.4-.6-1-.5.2-.4.8 0 1l6.9 4.7h.6l5.9-3 9.4-4.6 2.1-1.1c.4-.2.4-.8 0-1l-5-3.3-1.8-1.2c-.5-.2-1 .2-1.4.3l-12.5 6.1-4.2 2c-.7.3 0 1.4.6 1Zm31.8-16.3 17.4-8.4 6.9 4.4-17.4 8.7-7-4.7h.1Z"/>
  <path fill="#81cff5" d="m312.3 504.3 5.9-2.8 9.4-4.6 2.1-1h-.6l6.9 4.5v-1l-6 2.9-9.3 4.6-2.1 1.1h.6l-7-4.7v1h.1c.7-.3 0-1.3-.6-1h-.1c-.4.2-.3.8 0 1l7 4.7c.1.2.4.1.6 0l5.8-2.9 9.4-4.7 2.2-1c.4-.3.3-.9 0-1l-5-3.4-1.9-1.1c-.4-.2-1 .1-1.3.3l-12.6 6.1-4.1 2c-.7.3 0 1.4.6 1Zm35-17.5 17.3-8.4 6.9 4.4-17.4 8.7-7-4.7h.1Z"/>
  <path fill="#81cff5" d="m347.5 487.3 5.9-2.8 9.4-4.6 2.1-1h-.6l6.9 4.4v-1l-5.9 3-9.4 4.6-2.1 1.1h.6l-7-4.7v1h.1c.7-.3.1-1.4-.6-1-.5.2-.4.8 0 1l6.9 4.7c.2.2.4.1.6 0l5.9-2.9 9.3-4.7 2.2-1c.4-.3.3-.9 0-1l-5-3.4-1.9-1.1c-.4-.2-.9.1-1.3.3l-12.6 6-4 2c-.8.4-.2 1.4.5 1.1Zm39.3-19.9 17.4-8.4 6.9 4.4-17.4 8.7-7-4.7h.1Z"/>
  <path fill="#81cff5" d="m387.1 468 5.9-3 9.4-4.5 2.1-1h-.6l6.9 4.5v-1l-6 2.9-9.3 4.7-2.1 1h.6l-7-4.7v1h.1c.7-.3 0-1.3-.6-1-.5.3-.4.8 0 1l6.9 4.8h.6l5.9-3 9.3-4.7 2.2-1c.4-.3.3-.9 0-1l-5-3.3c-.7-.4-1.2-1-1.9-1.2-.4-.2-1 .1-1.3.3l-12.6 6.1-4.1 2c-.7.3 0 1.4.6 1Zm37-18.8 17.3-8.4 6.9 4.4-17.4 8.7-7-4.6h.1Z"/>
  <path fill="#81cff5" d="m424.3 449.7 5.9-2.8 9.4-4.6 2.1-1h-.6l6.9 4.5v-1l-5.9 2.9-9.4 4.7-2.1 1h.6l-7-4.7v1h.1c.7-.3 0-1.3-.6-1-.5.3-.4.9 0 1l6.9 4.8h.6l5.9-3 9.3-4.7 2.2-1c.4-.3.3-.8 0-1l-5-3.3c-.7-.4-1.3-1-1.9-1.2-.4-.2-1 .1-1.3.3l-12.6 6.1-4.1 2c-.7.3 0 1.4.6 1Zm33-16.7 17.4-8.4 6.8 4.4-17.4 8.7-7-4.7h.2Z"/>
  <path fill="#81cff5" d="m457.6 433.5 5.8-2.8 9.4-4.6 2.2-1h-.6l6.8 4.4v-1l-5.9 3-9.3 4.6-2.2 1.1h.6l-7-4.7v1h.2c.6-.3 0-1.4-.6-1h-.1c-.5.2-.4.8 0 1l7 4.7c0 .2.3.1.5 0l5.9-2.9 9.4-4.7 2.1-1c.4-.3.4-.9 0-1l-5-3.4-1.8-1.1c-.5-.2-1 .1-1.4.3l-12.5 6-4.2 2c-.6.4 0 1.4.7 1.1Zm35.6-18.1 10.4-5 6.8 4.4-17.4 8.7"/>
  <path fill="#81cff5" d="m493.3 415.6 9.1-4.4 1.3-.6h-.3l6.9 4.4v-.5l-17.4 8.7c-.4.2 0 .7.3.5l17.4-8.7c.2 0 .1-.4 0-.5l-3.2-2-2.3-1.5-1.3-1-.8.2-6.6 3.3-3.4 1.6c-.3.2 0 .7.3.5ZM369 329.7v8.3l-17.8 8.7v-8.2l17.8-8.8Z"/>
  <path fill="#81cff5" d="M368.3 329.7v8.3l.3-.5-6 3-9.6 4.6-2.2 1.1 1 .5v-8.2l-.4.5a16724.4 16724.4 0 0 1 15.6-7.7l2.2-1c.7-.4.1-1.4-.6-1l-6 2.9-9.6 4.7-2.2 1-.3.6v8.2c0 .5.5.7 1 .5l6-2.9 9.5-4.7 2.2-1c.2-.1.3-.4.3-.6v-8.3c0-.7-1.2-.7-1.2 0Z"/>
  <path fill="#a1dbf8" d="m361.2 325.4 7.7 4.3-17.8 8.8-8.3-4.1 18.4-9Z"/>
  <path fill="#a1dbf8" d="m361 325.9 6.7 3.8 1 .5v-1l-6 3-9.7 4.7-2.2 1h.6l-7.3-3.6-1-.5v1l6.2-3 10-4.8 2.2-1.1c.7-.3.1-1.4-.6-1l-6.2 3-10 4.8-2.2 1.1c-.4.2-.4.9 0 1l5.6 2.8c.9.5 1.7 1 2.6 1.3.5.3.8 0 1.2-.1l12.9-6.4 4.4-2.2c.4-.2.4-.8 0-1l-6.7-3.8-1-.5c-.6-.4-1.3.6-.6 1Z"/>
  <path fill="#81cff5" d="M334.5 346.3v8.4l-17.8 8.6v-8.2l17.8-8.8Z"/>
  <path fill="#81cff5" d="M333.9 346.3v8.4l.3-.6-6 3-9.6 4.6-2.2 1.1.9.5v-8.2l-.3.5 6-3 9.6-4.7 2.2-1c.7-.4 0-1.4-.6-1l-6 2.9-9.6 4.7-2.2 1-.3.6v8.2c0 .5.5.7.9.5l6-2.9 9.6-4.7 2.2-1c.2-.1.3-.3.3-.5v-8.4c0-.7-1.2-.7-1.2 0Z"/>
  <path fill="#a1dbf8" d="m326.8 342 7.7 4.3-17.8 8.8-8.3-4.1 18.4-9Z"/>
  <path fill="#a1dbf8" d="m326.5 342.5 6.7 3.8 1 .6v-1l-6 2.9-9.6 4.7-2.2 1h.6l-7.3-3.5-1-.6v1l6.2-3 9.9-4.8 2.3-1.1c.7-.3 0-1.4-.6-1l-6.3 3-9.8 4.8-2.3 1.1c-.4.2-.4.9 0 1l5.6 2.8 2.6 1.3c.4.3.7 0 1.2-.1l12.9-6.4 4.4-2.2c.4-.2.4-.8 0-1L328 342l-1-.5c-.7-.4-1.3.6-.6 1Z"/>
  <path fill="#81cff5" d="M295.7 365.3v8.3l-17.8 8.7v-8.2l17.8-8.8Z"/>
  <path fill="#81cff5" d="M295.1 365.3v8.3l.3-.5-6 3-9.6 4.6-2.2 1.1.9.5v-8.2l-.3.5 6-3 9.6-4.7 2.2-1c.7-.4 0-1.4-.6-1l-6 2.9-9.6 4.7-2.2 1a.6.6 0 0 0-.3.6v8.2c0 .5.5.7 1 .5l6-2.9 9.5-4.7 2.2-1c.2-.1.3-.4.3-.6v-8.3c0-.7-1.2-.7-1.2 0Z"/>
  <path fill="#a1dbf8" d="m288 361 7.7 4.3-17.8 8.8-8.3-4.1 18.4-9Z"/>
  <path fill="#a1dbf8" d="m287.7 361.5 6.7 3.8 1 .5v-1l-6 3-9.6 4.7-2.2 1h.6l-7.3-3.6-1-.5v1l6.2-3 10-4.8 2.2-1.1c.7-.4 0-1.4-.6-1l-6.2 3-10 4.8-2.2 1.1c-.4.2-.4.9 0 1l5.6 2.8 2.6 1.3c.5.3.8 0 1.2-.1l12.9-6.4 4.4-2.2c.4-.2.4-.8 0-1l-6.7-3.8-1-.5c-.7-.4-1.3.6-.6 1Z"/>
  <path fill="#81cff5" d="M254.6 385.5v8.3l-17.9 8.7v-8.3l17.8-8.7Z"/>
  <path fill="#81cff5" d="M254 385.5v8.3l.3-.5-6 3-9.7 4.6-2.2 1 1 .6v-8.3l-.4.6 6-3 9.7-4.7 2.2-1c.6-.4 0-1.4-.7-1.1l-6 3-9.6 4.7-2.2 1-.3.6v8.2c0 .5.5.7 1 .5l6-3 9.6-4.6 2.1-1a.6.6 0 0 0 .3-.6v-8.3c0-.7-1.1-.7-1.1 0Z"/>
  <path fill="#a1dbf8" d="m246.8 381.1 7.8 4.4-17.9 8.8-8.3-4.2 18.4-9Z"/>
  <path fill="#a1dbf8" d="m246.5 381.7 6.8 3.8 1 .5v-1l-6 3-9.7 4.7-2.2 1h.6l-7.3-3.6-1-.5v1l6.3-3 9.9-4.8 2.2-1.1c.7-.4.1-1.4-.6-1l-6.2 3-9.9 4.8-2.3 1.1c-.4.2-.4.9 0 1l5.6 2.8 2.6 1.3c.5.2.8 0 1.2-.2l13-6.3 4.4-2.2c.4-.2.3-.8 0-1l-6.8-3.8-1-.6c-.6-.3-1.2.7-.6 1Z"/>
  <path fill="#81cff5" d="M220.1 402.5v8.3l-17.8 8.7v-8.2l17.8-8.8Z"/>
  <path fill="#81cff5" d="M219.5 402.5v8.3l.3-.5-6 3-9.6 4.6-2.2 1 .9.6v-8.2l-.3.5 6-3 9.6-4.7 2.2-1c.7-.4.1-1.4-.6-1.1l-6 3-9.6 4.7-2.2 1a.6.6 0 0 0-.3.6v8.2c0 .5.5.7 1 .5l6-3 9.5-4.6 2.2-1c.2-.1.3-.4.3-.6v-8.3c0-.7-1.2-.7-1.2 0Z"/>
  <path fill="#a1dbf8" d="m212.4 398.2 7.7 4.3-17.8 8.8-8.3-4.2 18.4-9Z"/>
  <path fill="#a1dbf8" d="m212.1 398.7 6.7 3.8 1 .5v-1l-6 3-9.6 4.7-2.2 1h.6l-7.3-3.6-1-.5v1l6.2-3 10-4.8 2.2-1.1c.7-.4 0-1.4-.6-1l-6.2 3-10 4.8-2.2 1.1c-.4.2-.4.9 0 1l5.6 2.8 2.6 1.3c.4.2.8 0 1.2-.2l12.9-6.3 4.4-2.2c.4-.2.4-.8 0-1l-6.7-3.8-1-.6c-.7-.3-1.3.7-.6 1Z"/>
  <path fill="#81cff5" d="M182.1 420.7v8.3l-17.8 8.7v-8.2l17.8-8.8Z"/>
  <path fill="#81cff5" d="M181.5 420.7v8.3l.3-.5-6 3-9.6 4.6-2.2 1 .9.6v-8.2l-.3.5 6-3 9.6-4.7 2.2-1c.7-.4.1-1.4-.6-1.1l-6 3-9.6 4.7-2.2 1a.6.6 0 0 0-.3.6v8.2c0 .5.5.7 1 .5l6-3 9.5-4.6 2.2-1 .3-.6v-8.3c0-.8-1.2-.8-1.2 0Z"/>
  <path fill="#a1dbf8" d="m174.4 416.4 7.7 4.3-17.8 8.8-8.3-4.2 18.4-9Z"/>
  <path fill="#a1dbf8" d="m174.1 416.9 6.8 3.8 1 .5v-1l-6.1 3-9.6 4.7-2.2 1h.6l-7.3-3.6-1-.5v1l6.2-3 10-4.8 2.2-1.1c.7-.4 0-1.4-.6-1l-6.2 3-10 4.8-2.2 1.1c-.4.2-.4.8 0 1l5.6 2.8 2.6 1.3c.5.2.8 0 1.2-.2l12.9-6.3 4.4-2.2c.4-.2.4-.8 0-1l-6.7-3.8-1-.6c-.7-.3-1.3.7-.6 1Z"/>
  <path fill="#81cff5" d="M146.1 438.1v8.3l-17.8 8.7V447l17.8-8.8Z"/>
  <path fill="#81cff5" d="M145.5 438.1v8.3l.3-.5-6 3-9.6 4.6-2.2 1.1.9.5V447l-.3.5 6-3 9.6-4.7 2.2-1c.7-.4 0-1.4-.6-1l-6 2.9-9.6 4.7-2.2 1a.6.6 0 0 0-.3.6v8.2c0 .5.5.7.9.5l6-3 9.6-4.6 2.2-1a.6.6 0 0 0 .3-.6v-8.3c0-.7-1.2-.7-1.2 0Z"/>
  <path fill="#a1dbf8" d="m138.4 433.8 7.7 4.3-17.8 8.8-8.3-4.2 18.4-9Z"/>
  <path fill="#a1dbf8" d="m138 434.3 6.8 3.8 1 .5v-1l-6 3-9.6 4.7-2.2 1h.6l-7.3-3.6-1-.5v1l6.2-3 9.9-4.8 2.3-1.1c.7-.4 0-1.4-.6-1l-6.2 3-10 4.8-2.2 1.1c-.4.2-.4.9 0 1l5.6 2.8 2.6 1.3c.4.2.7 0 1.2-.2l12.9-6.3 4.4-2.2c.4-.2.4-.8 0-1l-6.7-3.8-1-.6c-.7-.3-1.3.7-.6 1Zm197.4-116.4 7.4-3.5-19-11.4-7.1 3.7 18.7 11.2Z"/>
  <path fill="#a1dbf8" d="m335.7 318.4 7.4-3.5c.4-.2.3-.8 0-1l-10.6-6.4-8.1-5c-.2 0-.4-.2-.7-.1l-.7.3-6.6 3.4c-.4.2-.4.8 0 1l6.3 3.8 10 6 2.4 1.5c.6.4 1.2-.6.6-1a34918 34918 0 0 1-16.4-9.9l-2.3-1.4v1l7.2-3.6h-.6l6.4 3.8 10.2 6.2 2.3 1.4v-1l-7.4 3.5c-.7.3-.1 1.3.6 1Zm-38-23.5 7.5-3.5-19-11.4-7.1 3.7 18.7 11.2Z"/>
  <path fill="#a1dbf8" d="m298 295.4 7.5-3.5c.4-.2.3-.8 0-1l-10.6-6.3-8.1-5-.7-.2-.7.4-6.6 3.4c-.4.2-.4.8 0 1l6.3 3.8 10 6 2.4 1.5c.6.3 1.2-.7.6-1l-6.3-3.9-10-6-2.4-1.4v1l7.2-3.7h-.6l6.4 3.9 10.2 6.1 2.3 1.4v-1l-7.4 3.5c-.7.4-.1 1.4.6 1Zm-45.5-27.2 7.7 4.6 7.4-3.5-11.2-6.8"/>
  <path fill="#a1dbf8" d="m252.3 268.6 6.6 4 1 .5c.3.2.5 0 .8 0l3.8-1.9 3.3-1.6c.3 0 .3-.6 0-.7l-9.8-6-1.4-.7c-.5-.3-1 .4-.4.7a14960.2 14960.2 0 0 0 11.2 6.8v-.8l-7.5 3.5h.5l-6.7-4-1-.6c-.4-.3-.9.5-.4.8Zm-38.8-24.2 7 4.3 7.5-3.6-14.5-8.7"/>
  <path fill="#a1dbf8" d="m213.3 244.8 6.3 3.8.8.4c.3.2.6 0 1-.2l3.7-1.8 3.2-1.5c.3-.1.2-.6 0-.8l-5-2.9-7.7-4.7-1.8-1c-.5-.4-1 .4-.5.7l4.9 3 9.6 5.7v-.8l-7.4 3.6h.4l-7-4.3c-.5-.3-1 .5-.5.8Zm327 37.3-8.3 3.8-13.9-8.3 8.3-3.8 13.9 8.3Z"/>
  <path fill="#a1dbf8" d="m540 281.6-7.3 3.3-1 .5h.6l-12.1-7.3-1.8-1v1l7.3-3.3 1-.5h-.6l12.2 7.3 1.7 1c.7.4 1.3-.6.6-1l-9.3-5.6-4.3-2.6-.4-.2-.8.2-2.4 1.1-5.6 2.6c-.4.2-.3.8 0 1l9.4 5.6 4.3 2.6.3.2.8-.2 2.5-1.2 5.5-2.5c.7-.3.1-1.4-.6-1Z"/>
  <path fill="#81cff5" d="m532 295-13.9-8.4v-9l13.9 8.3v9Z"/>
  <path fill="#81cff5" d="m532.3 294.4-12.1-7.3-1.8-1 .3.5v-9l-.9.5 12.2 7.3 1.7 1-.3-.5v9c0 .8 1.2.8 1.2 0v-8.3c0-.5 0-1-.4-1.3l-3.8-2.2-6.1-3.7-3.9-2.3c-.3-.3-.9 0-.9.5v8.3c0 .5 0 1 .4 1.3l3.8 2.2 6.2 3.7 3.8 2.3c.7.4 1.3-.6.6-1Z"/>
  <path fill="#a1dbf8" d="m500 257.8 11.4 6.9-8.3 3.8-3.3-2"/>
  <path fill="#a1dbf8" d="m499.8 258 10 6 1.5 1v-.6l-7.3 3.4-1 .4h.2l-3.2-2c-.4-.1-.7.4-.4.6l2.5 1.4.8.5c.3.1.4 0 .6-.1l6-2.7 2-1c.3 0 .2-.4 0-.5l-10-6-1.4-.9c-.4-.2-.7.4-.3.6Z"/>
  <path fill="#81cff5" d="m499.9 266.6 3.2 1.9v9l-3.3-2"/>
  <path fill="#81cff5" d="m499.7 266.8 3.3 2-.2-.3v9l.5-.3-3.3-2c-.3-.1-.6.4-.3.6l3.3 2a.3.3 0 0 0 .4-.3v-9c0-.3-.4-.4-.6-.6l-2.8-1.6c-.3-.2-.6.3-.3.5Z"/>
  <path fill="#a1dbf8" d="m434.6 218.8-8.3 3.8-13.8-8.3 8.3-3.8 13.8 8.3Z"/>
  <path fill="#a1dbf8" d="m434.3 218.3-7.2 3.3-1 .5h.5l-12.1-7.3-1.7-1v1l7.2-3.3 1-.5h-.5l12.1 7.3 1.7 1c.7.4 1.3-.6.6-1l-9.3-5.6-4.3-2.6-.4-.2-.7.2-2.5 1.1-5.5 2.6c-.5.2-.4.8 0 1l9.3 5.6 4.3 2.6.4.2.7-.2 2.5-1.2 5.5-2.5c.7-.3.1-1.3-.6-1Z"/>
  <path fill="#81cff5" d="m426.3 231.6-13.8-8.3v-9l13.8 8.3v9Z"/>
  <path fill="#81cff5" d="m426.6 231.1-12.1-7.3-1.7-1 .3.5v-9l-1 .5 12.2 7.3 1.7 1-.3-.5v9c0 .8 1.2.8 1.2 0v-8.3c0-.5.1-1-.3-1.3l-3.8-2.2-6.2-3.7-3.8-2.3c-.4-.3-1 0-1 .5v8.3c0 .5 0 1 .4 1.3l3.8 2.2 6.2 3.7 3.8 2.3c.7.4 1.3-.6.6-1Z"/>
  <path fill="#a1dbf8" d="m462 234.6-8.4 3.8-13.8-8.3 8.3-3.8 13.8 8.3Z"/>
  <path fill="#a1dbf8" d="m461.6 234.1-7.2 3.3-1 .5h.5l-12.1-7.3-1.7-1v1l7.2-3.3 1-.5h-.5l12.1 7.3 1.7 1c.7.4 1.3-.6.6-1l-9.3-5.6-4.3-2.6a1.3 1.3 0 0 0-.4-.2l-.7.2-2.5 1.2-5.5 2.5c-.4.2-.4.8 0 1l9.3 5.6 4.3 2.6.4.2.7-.2 2.5-1.1 5.5-2.6c.7-.3.1-1.3-.6-1Z"/>
  <path fill="#81cff5" d="m453.6 247.4-13.8-8.3v-9l13.8 8.3v9Z"/>
  <path fill="#81cff5" d="m454 247-12.2-7.3-1.7-1 .3.4v-9l-1 .5 12.2 7.3 1.7 1-.3-.5v9c0 .8 1.2.8 1.2 0v-8.2c0-.5.1-1-.3-1.3l-3.8-2.3-6.2-3.7-3.8-2.3c-.4-.2-1 0-1 .5v8.3c0 .5 0 1 .4 1.3l3.8 2.3 6.2 3.7 3.8 2.3c.7.4 1.3-.7.6-1Z"/>
  <path fill="#a1dbf8" d="m409.3 203.4-8.3 3.8-13.9-8.3 8.3-3.8 13.9 8.3Z"/>
  <path fill="#a1dbf8" d="m409 202.8-7.3 3.4-1 .5h.6l-12.1-7.3-1.8-1v1l7.3-3.4 1-.4h-.6l12.2 7.2 1.7 1c.7.5 1.3-.6.6-1l-9.3-5.5-4.4-2.6-.3-.2c-.3 0-.5 0-.8.2l-2.5 1.1-5.5 2.5c-.4.2-.3.9 0 1l9.4 5.7 4.3 2.5.3.2c.3.1.6 0 .8-.2l2.5-1.1 5.5-2.5c.7-.3 0-1.4-.6-1Z"/>
  <path fill="#81cff5" d="m401 216.2-13.9-8.3v-9l13.9 8.3v9Z"/>
  <path fill="#81cff5" d="m401.3 215.7-12.1-7.3-1.8-1 .3.5v-9l-.9.5 12.2 7.3 1.7 1-.3-.5v9c0 .8 1.2.8 1.2 0v-8.3c0-.5 0-1-.4-1.3l-3.8-2.2-6.1-3.7-3.9-2.3c-.3-.3-.9 0-.9.5v8.3c0 .4 0 1 .4 1.2l3.8 2.3 6.1 3.7 3.9 2.3c.7.4 1.2-.6.6-1Z"/>
  <path fill="#a1dbf8" d="m384 188-8.3 3.7-13.9-8.3 8.3-3.8L384 188Z"/>
  <path fill="#a1dbf8" d="m383.7 187.4-7.3 3.3-1 .5h.6l-12.2-7.2-1.7-1v1l7.3-3.4 1-.5h-.6l12.1 7.3 1.8 1c.6.5 1.2-.6.6-1l-9.4-5.6-4.3-2.6a1.3 1.3 0 0 0-.3-.1.8.8 0 0 0-.8.2l-2.5 1-5.5 2.6c-.4.2-.4.8 0 1l9.3 5.6 4.3 2.6.4.2c.3 0 .5 0 .8-.2l2.4-1.1 5.6-2.5c.7-.4 0-1.4-.6-1Z"/>
  <path fill="#81cff5" d="m375.7 200.8-13.9-8.3v-9l13.9 8.2v9Z"/>
  <path fill="#81cff5" d="m376 200.3-12.2-7.3-1.7-1 .3.5v-9l-.9.4 12.1 7.3 1.8 1-.3-.5v9c0 .8 1.2.8 1.2 0v-8.2c0-.5 0-1-.4-1.3l-3.8-2.3-6.2-3.7-3.8-2.3c-.4-.2-.9 0-.9.5v8.3c0 .5 0 1 .4 1.3l3.7 2.3 6.2 3.7 3.9 2.3c.6.4 1.2-.7.6-1Z"/>
  <path fill="#a1dbf8" d="m355.9 171-8.3 3.7-13.9-8.3 8.3-3.8 14 8.4Z"/>
  <path fill="#a1dbf8" d="m355.6 170.4-7.3 3.3-1 .5h.6l-12.2-7.3-1.7-1v1l7.3-3.3 1-.5h-.6l12.1 7.3 1.8 1c.6.4 1.2-.6.6-1l-9.4-5.6-4.3-2.6a1.3 1.3 0 0 0-.3-.2l-.8.2-2.5 1.2-5.5 2.5c-.4.2-.4.8 0 1l9.3 5.6 4.3 2.6.4.2.8-.2 2.4-1.1 5.6-2.6c.7-.3 0-1.3-.6-1Z"/>
  <path fill="#81cff5" d="m347.6 183.8-13.9-8.3v-9l13.9 8.2v9Z"/>
  <path fill="#81cff5" d="m347.9 183.2-12.2-7.2-1.7-1 .3.4v-9l-.9.5 12.1 7.3 1.8 1-.3-.5v9c0 .8 1.2.8 1.2 0v-8.2c0-.5 0-1-.4-1.3l-3.8-2.3-6.1-3.7-3.9-2.3c-.4-.2-.9 0-.9.5v8.3c0 .5 0 1 .4 1.3l3.8 2.3 6.1 3.7 3.9 2.3c.6.4 1.2-.7.6-1Z"/>
  <path fill="#a1dbf8" d="m326.6 153.5-8.3 3.8-13.9-8.3 8.3-3.8 13.9 8.3Z"/>
  <path fill="#a1dbf8" d="m326.3 153-7.3 3.3-1 .5h.6l-12.2-7.3-1.7-1v1l7.3-3.3 1-.5h-.6l12.2 7.3 1.7 1c.6.4 1.2-.6.6-1l-9.4-5.6-4.3-2.6-.3-.2-.8.2-2.5 1.2-5.5 2.5c-.4.2-.3.8 0 1l9.4 5.6 4.3 2.6.3.2.8-.2 2.5-1.1 5.5-2.6c.7-.3 0-1.3-.6-1Z"/>
  <path fill="#81cff5" d="m318.3 166.3-13.9-8.3v-9l13.9 8.3v9Z"/>
  <path fill="#81cff5" d="m318.6 165.8-12.2-7.2-1.7-1 .3.5v-9l-.9.4 12.1 7.3 1.8 1-.3-.5v9c0 .8 1.2.8 1.2 0v-8.2c0-.5 0-1-.4-1.3l-3.8-2.3-6.1-3.7-3.9-2.3a.6.6 0 0 0-.9.5v8.3c0 .5 0 1 .4 1.3l3.8 2.3 6.1 3.7 3.9 2.3c.6.4 1.2-.7.6-1Z"/>
  <path fill="#a1dbf8" d="m295.7 134.5-8.3 3.8-13.8-8.3 8.2-3.8 13.9 8.3Z"/>
  <path fill="#a1dbf8" d="m295.4 134-7.2 3.3-1.1.5h.6l-12.1-7.3-1.8-1v1l7.3-3.3 1-.5h-.6l12.2 7.3 1.7 1c.7.4 1.3-.6.6-1l-9.3-5.6-4.3-2.6-.4-.2-.7.2-2.5 1.2-5.5 2.5c-.5.2-.4.8 0 1l9.3 5.6 4.3 2.6.3.2.8-.2 2.5-1.1 5.5-2.6c.7-.3.1-1.3-.6-1Z"/>
  <path fill="#81cff5" d="m287.4 147.4-13.8-8.3v-9l13.8 8.2v9Z"/>
  <path fill="#81cff5" d="m287.7 146.8-12.1-7.2-1.8-1 .3.5v-9l-.9.5 12.2 7.2 1.7 1-.3-.5v9c0 .8 1.2.8 1.2 0v-8.2c0-.5.1-1-.4-1.3l-3.8-2.3-6.1-3.7-3.9-2.3c-.3-.2-.9 0-.9.5v8.3c0 .5 0 1 .4 1.3l3.8 2.3 6.1 3.7 3.9 2.3c.7.4 1.3-.6.6-1Z"/>
  <path fill="#a1dbf8" d="m264.4 115.5-8.3 3.9-13.8-8.3 8.3-3.9 13.8 8.3Z"/>
  <path fill="#a1dbf8" d="m264.1 115-7.2 3.4-1 .4h.5l-12.1-7.2-1.7-1v1l7.2-3.4 1-.5h-.5l12.1 7.3 1.7 1c.7.4 1.3-.6.6-1l-9.3-5.6-4.3-2.6-.4-.1c-.2-.1-.5 0-.7.2l-2.5 1.1-5.5 2.5c-.4.2-.4.8 0 1l9.3 5.6 4.3 2.6.4.2c.2 0 .5 0 .7-.2l2.5-1.1 5.5-2.5c.7-.4.1-1.4-.6-1Z"/>
  <path fill="#81cff5" d="m256.1 128.4-13.8-8.3v-9l13.8 8.2v9Z"/>
  <path fill="#81cff5" d="m256.4 127.9-12.1-7.3-1.7-1 .3.5v-9l-1 .5 12.2 7.2 1.7 1-.3-.5v9c0 .8 1.2.8 1.2 0v-8.2c0-.5.1-1-.3-1.3l-3.8-2.3-6.2-3.7-3.8-2.3a.6.6 0 0 0-1 .5v8.3c0 .5 0 1 .4 1.3l3.8 2.3 6.2 3.7 3.8 2.3c.7.4 1.3-.6.6-1Z"/>
  <path fill="#a1dbf8" d="m235.5 98.1-8.3 3.8-13.8-8.1 8.3-4 13.8 8.3Z"/>
  <path fill="#a1dbf8" d="M235.3 97.6 228 101l-1 .4h.5l-12-7.1-1.8-1v1l7.2-3.5 1-.5h-.5l12.1 7.3 1.7 1c.7.4 1.3-.6.6-1l-9.3-5.6-4.3-2.6-.5-.2-.6.3-2.5 1.1-5.5 2.6c-.4.2-.4.9 0 1l9.3 5.6 4.3 2.5.5.2c.2 0 .4 0 .6-.2l2.5-1.1 5.5-2.5c.7-.4.1-1.4-.6-1Z"/>
  <path fill="#81cff5" d="m227.2 111-13.4-8v-8.8l13.4 7.7v9Z"/>
  <path fill="#81cff5" d="m227.5 110.5-11.8-7-1.6-1 .3.6v-9l-1 .6 11.9 6.8 1.6 1-.3-.6v9c0 .8 1.2.8 1.2 0v-8c0-.6.2-1.2-.3-1.5l-1.1-.7-8.5-4.9-3.8-2.2a.6.6 0 0 0-1 .5v8.1c0 .5 0 1.1.4 1.4l3.6 2.1 6 3.6 3.8 2.2c.7.4 1.3-.7.6-1Z"/>
  <path fill="#021b44" d="M213 91.9V103c0 .3.7.3.7 0V91.9c0-.4-.6-.4-.6 0Z"/>
  <path fill="#021b44" d="M213 103v141.5c0 .4.7.4.7 0V103.1c0-.4-.6-.4-.6 0Zm0-17v5.9c0 .4.7.4.7 0v-6c0-.3-.6-.3-.6 0Z"/>
  <path fill="#021b44" d="M213 68.2v17.7c0 .4.7.4.7 0V68.2c0-.4-.6-.4-.6 0Z"/>
  <path fill="#d1a617" d="m486.7 271.9.7 4 6.1 10.5s-1.6 8.2-10.4 8.7c-8.9.4-14-7.1-13.2-13 .8-6 6.4-13.7 16.8-10.2ZM238 232.4l-.5 3-4.7 7.9s1.2 6.2 8 6.5a9.2 9.2 0 0 0 9.8-9.8c-.5-4.4-4.8-10.2-12.6-7.6Z"/>
  <path fill="#057c75" d="M138 322.4c-11.3-14.6-50-59.9-85.6-23.4v1.5a247 247 0 0 0 12 76.3c8.2 7.4 15.2 11.9 15.2 11.9 2-.8 17.6 13.3 32.6-11.2 15-24.6 37.1-40 25.6-55Z"/>
  <path fill="#021b44" d="m88.3 321.9.5 5 1.2 12 1.4 14.7 1.2 12.6.6 6.2c0 .3.4.5.5.2l4.4-7.9 6.8-12.5 1.6-2.9c.2-.3-.3-.6-.5-.3l-4.3 8-6.9 12.4-1.6 3h.6l-.5-5-1.2-12-1.4-14.7-1.2-12.6c-.2-2-.3-4.1-.6-6.1v-.1c0-.4-.6-.4-.6 0Z"/>
  <path fill="#021b44" d="M71.3 358.8h.2a39.2 39.2 0 0 1 2.4 1.4l5.4 3.3 11.4 7.5 2.6 1.7-.1-.3v65.7c0 .4.6.4.6 0v-65c0-.4 0-.7-.3-1l-2.4-1.6-10.3-6.7a337 337 0 0 0-5.2-3.3l-3.5-2c-.2-.1-.5-.3-.8-.3-.4 0-.3.6 0 .6Zm422-106.5a11.8 11.8 0 1 1-19.2-12 11.9 11.9 0 0 1 12.4-2.1c.4.1.6-.4.2-.6a12.5 12.5 0 0 0-12 1.4 12.5 12.5 0 0 0-5.1 9.5 12.4 12.4 0 0 0 15.2 12.5c4.3-1 7.8-4.3 9-8.5.1-.4-.5-.6-.6-.2Z"/>
  <path fill="#021b44" d="M494.7 254.8a13.7 13.7 0 0 1-9.1 8 14 14 0 0 1-11.6-2.3 13.6 13.6 0 0 1-5.4-10 13.6 13.6 0 0 1 4.2-10.7 13.7 13.7 0 0 1 13.4-3.1c.3 0 .5-.5.1-.6a14.3 14.3 0 0 0-12.9 2.4A14.2 14.2 0 0 0 468 249a14.2 14.2 0 0 0 4.6 11 14.3 14.3 0 0 0 11.6 3.5 14.3 14.3 0 0 0 11-8.7c.2-.3-.4-.5-.5-.2Z"/>
  <path fill="#021b44" d="M495.3 255a18.9 18.9 0 0 0 1.2-5.2c.3-2.6.2-5.4-1.1-7.7a20.7 20.7 0 0 0-4.3-5 49.6 49.6 0 0 0-4.7-3.6l-2.6-1.7c-.3-.2-.6.3-.3.5a70 70 0 0 1 6.4 4.6 24.8 24.8 0 0 1 4.4 4.7 7 7 0 0 1 1.3 2.4c.4 1.5.5 3.1.4 4.6a18.7 18.7 0 0 1-1.3 6.2c-.2.3.4.5.5.1Z"/>
  <path fill="#021b44" d="M486 236.5c.5 1.3.8 2.7.9 4.1 0 .5 0 1 .2 1.5l6.4 10.8 1.2 2c.2.4.7.1.5-.2l-3.2-5.5-4.2-7.2-.2-.4v-.7a18.6 18.6 0 0 0-1-4.6c-.2-.3-.7-.2-.6.2Z"/>
  <path fill="#021b44" d="M500.1 275.4v-43.6l-.1-.7-1.3-1.3c-.2-.2-.3-.3-.6-.2l-13.3 2.6-.4.1c-.3 0-.2.7.2.6l12.1-2.4 1.7-.4h-.3l.8.8.5.5.2.2c.2 0-.4 0 0-.2v44c0 .4.5.4.5 0Z"/>
  <path fill="#021b44" d="M470.5 325.1v9.2c0 .1 0 .2.3.2l9.8-.4 15.6-.6 3.6-.2a.3.3 0 0 0 .3-.3v-57.5c0-.4-.6-.4-.6 0V333l.3-.3-9.8.5-15.7.6-3.5.1.3.4V325c0-.4-.6-.4-.6 0Z"/>
  <path fill="#021b44" d="M470.8 325.4c.3 0 .3-.6 0-.6-.4 0-.4.6 0 .6Zm-.3-33.8v4.7c0 .4.6.4.6 0v-4.8c0-.3-.6-.3-.6 0Z"/>
  <path fill="#021b44" d="M470.8 291.8c.3 0 .3-.6 0-.6-.4 0-.4.7 0 .7Zm15.8-55.5a12.3 12.3 0 0 0-7.4-7.5 15.2 15.2 0 0 0-5.8-.8c-1.4.1-2.9.8-4.2 1.4a13.8 13.8 0 0 0-3.2 2.2 13.6 13.6 0 0 0-3.7 5.7 19.2 19.2 0 0 0-.5 9.8c.2.4.6.7.9 1l4.3 5.3 3.4 4.1v5.5c0 .4.7.4.7 0v-5.2c0-.4-.2-.6-.4-1a769.3 769.3 0 0 0-7.8-9.3l-.5-.7-.2-.1c0-.1 0-.1 0 0v-.6l-.2-1.4c-.1-1.7 0-3.4.3-5a14.6 14.6 0 0 1 2.3-5.7 13.2 13.2 0 0 1 6-4.6c1-.4 2-.8 3-.9 1 0 1.9 0 2.8.2a12 12 0 0 1 9.6 7.8c.1.3.7.2.6-.2Z"/>
  <path fill="#021b44" d="M475.1 295.2a13.7 13.7 0 0 1-6.4-13.3A13.7 13.7 0 0 1 477 271a13.8 13.8 0 0 1 9.2-.4c.3.1.5-.5.1-.6a14.3 14.3 0 0 0-14.7 4.2 14 14 0 0 0-2.6 14.6 14.3 14.3 0 0 0 5.8 6.8c.3.2.6-.3.3-.5Z"/>
  <path fill="#021b44" d="M475 295.8c.3 0 .3-.6 0-.6-.4 0-.4.6 0 .6Zm19.7-7a13.7 13.7 0 0 1-13.2 8.4c-.4 0-.4.6 0 .6a14.3 14.3 0 0 0 13.8-8.9c.1-.3-.5-.5-.6-.1Z"/>
  <path fill="#021b44" d="M495.3 289a19 19 0 0 0 1.2-5.2c.3-2.6.2-5.4-1.1-7.7a20.7 20.7 0 0 0-4.3-4.9 49.7 49.7 0 0 0-4.7-3.6l-2.6-1.8c-.3-.2-.6.3-.3.5a69.4 69.4 0 0 1 6.4 4.6 24.7 24.7 0 0 1 4.4 4.7 7 7 0 0 1 1.3 2.4c.4 1.5.5 3.1.4 4.6a18.7 18.7 0 0 1-1.3 6.2c-.2.3.4.5.5.1Z"/>
  <path fill="#021b44" d="M486 270.5c.5 1.3.8 2.7.9 4.1 0 .5 0 1 .2 1.5l6.4 10.8 1.2 2.1c.2.3.7 0 .5-.3l-3.2-5.5-4.2-7.2-.2-.3c-.1-.3 0-.5 0-.8a18.6 18.6 0 0 0-1-4.5c-.2-.4-.7-.3-.6.1Z"/>
  <path fill="#021b44" d="M471 291.5c0-.4-.4-.7-.6-1l-1.5-1.7a660 660 0 0 0-4-4.9l-2.6-3.1c-.2-.2 0-.1 0 0v-.2l-.2-1c-.3-2.8 0-5.9 1-8.6a13 13 0 0 1 3.2-5 14.9 14.9 0 0 1 6.6-3.3 10 10 0 0 1 4.6.3 11.7 11.7 0 0 1 8.5 7.5c.1.4.7.2.6-.2a12.2 12.2 0 0 0-6.4-7 14.7 14.7 0 0 0-6.4-1.3c-.8 0-1.6.3-2.4.5-1.2.4-2.4 1-3.5 1.6a13.1 13.1 0 0 0-4.4 4.6c-1.7 3-2.3 6.4-2.1 9.8 0 .8 0 1.6.3 2.4l.3.4 1.2 1.5 4 4.8 3 3.8.2.2s.1.1 0 0c.2.4.8.2.6-.1Zm22.2 28a11.9 11.9 0 0 1-7.3 7.9 11.8 11.8 0 0 1-15.7-10.3 11.9 11.9 0 0 1 3.9-9.6 12 12 0 0 1 12.4-2c.4 0 .6-.5.2-.6a12.5 12.5 0 0 0-12 1.4 12.5 12.5 0 0 0-5.1 9.5 12.4 12.4 0 0 0 15.2 12.5c4.3-1 7.8-4.4 9-8.6.1-.4-.5-.5-.6-.2Z"/>
  <path fill="#021b44" d="M494.7 322a13.7 13.7 0 0 1-9.1 8c-4 1-8.3.2-11.6-2.3a13.6 13.6 0 0 1-5.4-10 13.6 13.6 0 0 1 4.2-10.6 13.7 13.7 0 0 1 13.4-3.2c.3.1.5-.4.1-.5a14.3 14.3 0 0 0-12.9 2.3 14.2 14.2 0 0 0-5.4 10.6 14.2 14.2 0 0 0 4.6 11 14.4 14.4 0 0 0 11.6 3.6 14.3 14.3 0 0 0 11-8.7c.2-.4-.4-.5-.5-.2Z"/>
  <path fill="#021b44" d="M495.3 322.2a19 19 0 0 0 1.2-5.1 13 13 0 0 0-1.1-7.8 20.7 20.7 0 0 0-4.3-4.9 49.4 49.4 0 0 0-4.7-3.6l-2.6-1.8c-.3-.2-.6.3-.3.6a69.7 69.7 0 0 1 6.4 4.6 24.7 24.7 0 0 1 4.4 4.6c.6.8 1 1.6 1.3 2.5.4 1.4.5 3 .4 4.6a18.7 18.7 0 0 1-1.3 6.1c-.2.4.4.5.5.2Z"/>
  <path fill="#021b44" d="M486 303.7c.5 1.4.8 2.8.9 4.2 0 .5 0 1 .2 1.4l6.4 10.8 1.2 2.1c.2.4.7 0 .5-.3l-3.2-5.5-4.2-7.2-.2-.3c-.1-.2 0-.5 0-.8a18.6 18.6 0 0 0-1-4.5c-.2-.4-.7-.2-.6.1Z"/>
  <path fill="#021b44" d="M481.3 297.8a11.6 11.6 0 0 1 4.7 6c.1.3.7.1.6-.2a12.3 12.3 0 0 0-5-6.4c-.3-.2-.6.3-.3.6Z"/>
  <path fill="#021b44" d="M470.8 296.6c.9-.4 1.8-.7 2.7-.8a13.7 13.7 0 0 1 7.8 2c.3.1.6-.4.3-.6a14.3 14.3 0 0 0-8-2c-1 0-2 .5-3 .8-.3.1-.1.7.2.6Z"/>
  <path fill="#021b44" d="M471 324.7c0-.2-.2-.4-.3-.5l-.8-1a1404.3 1404.3 0 0 0-7.4-9l-.2-.2c-.2-.2 0-.1 0 0l-.1-.3-.2-2a18.7 18.7 0 0 1 1-7.3 13.1 13.1 0 0 1 7.8-7.8c.4-.2.2-.7-.1-.6a13.7 13.7 0 0 0-7.7 6.8 18 18 0 0 0-1.6 7.8l.1 2.7c0 .3 0 .7.3 1 .3.6.9 1 1.3 1.6l2.7 3.2 3.1 3.8 1.1 1.4.4.4s.1.3 0 .1c.2.4.8.3.7-.1Zm15.3-90.7 11.6-1.6h.3c.1 0-.2-.2 0 0l1.5.8c.3.2.6-.3.3-.5l-1.3-.7c-.3-.2-.4-.2-.7-.2l-2.2.3-7.6 1-2 .4c-.4 0-.2.6.1.5Z"/>
  <path fill="#021b44" d="M498 229.8v103.3c0 .4.7.4.7 0V229.8c0-.3-.7-.3-.7 0Z"/>
  <path fill="#021b44" d="m470.5 334.3.8 2.1c0 .2.1.3.3.3h27.3a.3.3 0 0 0 .3-.3l1-3.3c0-.4-.5-.5-.6-.2l-1 3.4.3-.2h-27.4l.3.2-.8-2.1c-.1-.4-.7-.2-.5.1Z"/>
  <path fill="#021b44" d="M482 429.2v-92.8c0-.4-.6-.4-.6 0v92.8c0 .4.6.4.6 0Z"/>
  <path fill="#021b44" d="M482 468.2v-38.9c0-.5-.6-.5-.6 0V468c0 .5.6.5.6 0Zm11.5-44.6v-87.2c0-.4-.6-.4-.6 0v87.2c0 .4.6.4.6 0Z"/>
  <path fill="#021b44" d="M493.5 454.9v-31.3c0-.4-.6-.4-.6 0V455c0 .4.6.4.6 0ZM232.5 218a9.3 9.3 0 0 0 5.6 6 9.3 9.3 0 0 0 8.4-1 9.1 9.1 0 0 0 4-6.8 9.3 9.3 0 0 0-3-7.6 9.3 9.3 0 0 0-9.7-1.7c-.3.2-.2.7.2.6a8.7 8.7 0 0 1 8.3.9 8.7 8.7 0 0 1 3.7 6.6c0 2.6-1 5.2-3 7a8.7 8.7 0 0 1-7.6 1.8 8.7 8.7 0 0 1-6.3-6c-.1-.4-.7-.2-.6.2Z"/>
  <path fill="#021b44" d="M231.5 219.9a10.5 10.5 0 0 0 20.2-3.1 10.7 10.7 0 0 0-3.2-8.4 10.6 10.6 0 0 0-10.4-2.5c-.4 0-.2.7.2.6a10 10 0 0 1 9 1.6 10 10 0 0 1 3.8 7.4 10 10 0 0 1-3.1 7.7 10.1 10.1 0 0 1-8.2 2.6 10 10 0 0 1-7.8-6.1c-.1-.3-.7-.2-.5.2Z"/>
  <path fill="#021b44" d="M232 219.7a13.6 13.6 0 0 1-.9-3.7c-.2-1.9-.1-3.9.9-5.5 1.5-2.5 4-4.4 6.4-6l1.9-1.3c.3-.2 0-.7-.3-.5a52.2 52.2 0 0 0-5 3.6 17.7 17.7 0 0 0-3.4 3.6 8.5 8.5 0 0 0-1.1 5.3c0 1.5.4 3.2 1 4.7.1.3.7.2.5-.2Z"/>
  <path fill="#021b44" d="M237.9 206.1a13.7 13.7 0 0 0-.7 2.9l-.1 1.1-4.7 8-1 1.5c-.1.4.4.7.6.3l5.5-9.4c.2-.2.2-.3.2-.6.1-1.2.3-2.5.8-3.6 0-.4-.5-.6-.6-.2Zm-9.5 9.8v-13.4s-.2.3.1 0l.4-.3.6-.7-.3.1 9 1.8 1.2.3c.4 0 .5-.5.1-.6l-4.8-1-3.5-.7-1.8-.3c-.4 0-.6.2-.8.5-.2.2-.7.6-.8.9v13.4c0 .4.6.4.6 0Z"/>
  <path fill="#021b44" d="M228.4 216.2v-.3a.2.2 0 0 0 0-.2.3.3 0 0 0-.1 0 .2.2 0 0 0-.2 0 .3.3 0 0 0-.2 0 .3.3 0 0 0 0 .2v.5a.3.3 0 0 0 .1 0 .2.2 0 0 0 .1 0h.1a.3.3 0 0 0 .2 0v-.2Z"/>
  <path fill="#021b44" d="M249.3 271.6v6.8l.3-.3-7.2-.3-11.6-.5H228l.4.2v-61.3c0-.4-.6-.4-.6 0v61.3c0 .2 0 .3.3.3l7.2.3 11.6.5 2.6.1c.2 0 .3-.1.3-.3v-6.8c0-.3-.6-.3-.6 0Z"/>
  <path fill="#021b44" d="M249.6 272c.4 0 .4-.7 0-.7s-.4.6 0 .6Zm-.3-25.1v3.5c0 .4.6.4.6 0v-3.5c0-.4-.6-.4-.6 0Z"/>
  <path fill="#021b44" d="M249.6 247.2c.4 0 .4-.6 0-.6s-.4.6 0 .6Zm-11.1-41a8.5 8.5 0 0 1 5.6-5.3 7.8 7.8 0 0 1 4.1-.3 10.6 10.6 0 0 1 5.2 3 10 10 0 0 1 2.2 4.2 14.2 14.2 0 0 1 .4 5.2c0 .2-.2.4-.1.7 0 .1-.1.1 0 0l-.2.2-1 1.2a461.6 461.6 0 0 0-4.6 5.6c-.3.3-.6.6-.7.9-.2.4 0 1 0 1.3v3c0 .3.5.3.5 0v-4c0-.2 0-.1 0 0v-.1l.4-.5a661.8 661.8 0 0 1 4.8-5.7l1-1.3c.2-.1.3-.2.3-.4.2-.7.2-1.5.2-2.2 0-1.3 0-2.6-.4-4-.4-1.5-1-3-2.1-4.3a10.7 10.7 0 0 0-5-3.2 6.5 6.5 0 0 0-1.9-.4 12 12 0 0 0-2.3.3 9.2 9.2 0 0 0-6 4l-1 2c-.1.4.4.5.6.2Z"/>
  <path fill="#021b44" d="M246.7 250a10.6 10.6 0 0 0 5-10.4c-.6-3.7-3-6.9-6.5-8.3a10.7 10.7 0 0 0-7.1-.3c-.4.1-.2.7.2.6a10 10 0 0 1 10.3 2.8 9.8 9.8 0 0 1 1.9 10.2 10 10 0 0 1-4.1 5c-.4.1 0 .7.3.5Z"/>
  <path fill="#021b44" d="M246.5 250.1c.4 0 .4-.6 0-.6s-.4.6 0 .6Zm-15-5.1a10.7 10.7 0 0 0 10.2 6.6c.4 0 .4-.6 0-.6a10 10 0 0 1-9.7-6.2c-.1-.3-.7-.2-.5.2Z"/>
  <path fill="#021b44" d="M232 244.8a13.6 13.6 0 0 1-.9-3.7c-.2-1.9-.1-3.9.9-5.5 1.5-2.5 4-4.4 6.4-6l1.9-1.3c.3-.2 0-.7-.3-.5a52.2 52.2 0 0 0-5 3.6 17.7 17.7 0 0 0-3.4 3.6 8.5 8.5 0 0 0-1.1 5.3c0 1.6.4 3.2 1 4.7.1.3.7.2.5-.2Z"/>
  <path fill="#021b44" d="M237.9 231.2c-.4 1-.6 2-.7 3l-.1 1-1.2 2-3.5 6-1 1.6c-.1.3.4.6.6.2l5.5-9.3.2-.7c.1-1.2.3-2.4.7-3.6.2-.4-.4-.6-.5-.2Z"/>
  <path fill="#021b44" d="m249.9 247 .1-.2.4-.5 1.2-1.5 3.1-3.7c.5-.6 1.2-1.2 1.6-1.9.3-.4.2-1 .3-1.4a14 14 0 0 0-1-7 9.8 9.8 0 0 0-5.2-5 10.3 10.3 0 0 0-2.7-.8 9.8 9.8 0 0 0-4.4.6 9.1 9.1 0 0 0-5.4 5.6c-.2.4.4.5.6.2a8.5 8.5 0 0 1 5-5.2 9.5 9.5 0 0 1 4-.6c.8 0 1.5.3 2.2.6a9.2 9.2 0 0 1 5.2 4.7 13.2 13.2 0 0 1 1 6.8v1.2c0-.1 0-.1 0 0l-.4.4-1 1.2-3.3 3.9-1.3 1.6c-.2.2-.5.5-.6.8 0 .4.5.5.6.2Zm-17.4 20.7a9.3 9.3 0 0 0 5.6 6 9.3 9.3 0 0 0 8.4-.9 9.1 9.1 0 0 0 4-6.9 9.3 9.3 0 0 0-3-7.6 9.3 9.3 0 0 0-9.7-1.6c-.3 0-.2.7.2.5a8.7 8.7 0 0 1 8.3 1 8.7 8.7 0 0 1 3.7 6.5 9 9 0 0 1-3 7 8.7 8.7 0 0 1-7.6 1.8 8.7 8.7 0 0 1-6.3-6c-.1-.3-.7-.2-.6.2Z"/>
  <path fill="#021b44" d="M231.5 269.5a10.5 10.5 0 0 0 20.2-3.1 10.7 10.7 0 0 0-3.2-8.4 10.6 10.6 0 0 0-10.4-2.5c-.4.1-.2.7.2.6a10 10 0 0 1 9 1.6 10 10 0 0 1 3.8 7.5 10 10 0 0 1-3.1 7.7 10.1 10.1 0 0 1-8.2 2.5 10 10 0 0 1-7.8-6c-.1-.4-.7-.3-.5 0v.1Z"/>
  <path fill="#021b44" d="M232 269.4a13.6 13.6 0 0 1-.9-3.8c-.2-1.8-.1-3.9.9-5.5 1.5-2.5 4-4.4 6.4-6l1.9-1.2c.3-.2 0-.8-.3-.6a52.2 52.2 0 0 0-5 3.6 17.7 17.7 0 0 0-3.4 3.6 8.5 8.5 0 0 0-1.1 5.3c0 1.6.4 3.2 1 4.7.1.4.7.2.5-.2Z"/>
  <path fill="#021b44" d="M237.9 255.8c-.4.9-.6 1.8-.7 2.8l-.1 1.2-5.6 9.5c-.2.3.3.6.5.3l5.5-9.4c.2-.2.2-.4.2-.6.1-1.3.3-2.5.8-3.7 0-.4-.5-.5-.6-.2Z"/>
  <path fill="#021b44" d="M241.6 251a9.2 9.2 0 0 0-3.7 4.7c-.2.4.4.6.5.2a8.5 8.5 0 0 1 3.5-4.4c.3-.2 0-.7-.3-.5Z"/>
  <path fill="#021b44" d="M249.7 250.1a8.7 8.7 0 0 0-2.1-.6h-1.2c-1.7.2-3.4.6-4.8 1.5-.3.2 0 .7.3.5a10 10 0 0 1 5.7-1.4c.6 0 1.3.3 2 .6.3.1.5-.5.1-.6Z"/>
  <path fill="#021b44" d="M249.9 271.5c0 .1 0 0 0 0l.3-.3.6-.9 2-2.4 3.4-4 .3-.7a14.3 14.3 0 0 0-.8-7.4 10.3 10.3 0 0 0-6-5.7c-.4-.1-.5.4-.2.6a9.6 9.6 0 0 1 5.5 5 13.1 13.1 0 0 1 1 5.6l-.1 1.7v.4s0-.2 0 0c-1.2 1.2-2.2 2.6-3.3 3.9l-2.2 2.7c-.4.4-.9.8-1 1.3-.2.4.4.6.5.2Zm-11.6-67.6-8.7-1.2c-.6 0-1.1.4-1.6.7-.3.2 0 .7.3.5l1-.6h.2c0-.1-.2 0-.2 0h.1l1.8.2 5.5.8 1.4.2c.4 0 .5-.5.2-.6Z"/>
  <path fill="#021b44" d="M229 201.3v76.2c0 .4.5.4.5 0v-76.2c0-.3-.6-.3-.6 0Z"/>
  <path fill="#021b44" d="m249.3 278.3-.5 1.6.2-.2h-20.2l.3.2-.7-2.5c0-.3-.6-.2-.5.2l.7 2.5a.3.3 0 0 0 .2.2H249c.2 0 .3-.1.3-.2l.6-1.6c.1-.4-.4-.5-.6-.2Z"/>
  <path fill="#021b44" d="M241.3 338.4v38.8c0 .1 0 0 0 0-.2 0-.3.3-.3.3-1.6 1.7-4 1.7-6 1.2a5.2 5.2 0 0 1-1.8-.8l.2.3V280c0-.4-.6-.4-.6 0v98c0 .5.9.8 1.3 1 1.9.6 4 .8 6-.1l1.3-1c.1-.2.4-.4.4-.6v-39c0-.3-.6-.3-.6 0Z"/>
  <path fill="#021b44" d="M241.3 280v58.4c0 .4.5.4.5 0V280c0-.4-.6-.4-.6 0Z"/>
  <circle cx="300" cy="300" r="244" fill="none" stroke="#f8ebc0" stroke-width="13.8"/>
  <circle cx="300" cy="300" r="267" fill="none" stroke="#f8ebc0" stroke-dasharray="36.6 36.6" stroke-linecap="square" stroke-miterlimit="1.3" stroke-width="11"/>
  <circle cx="300" cy="300" r="290" fill="none" stroke="#f8ebc0" stroke-dasharray="87 87" stroke-linecap="square" stroke-miterlimit="1.3" stroke-width="11"/>
</svg>